<svg width="32" height="32" viewBox="0 0 32 32" fill="none" xmlns="http://www.w3.org/2000/svg">
<path d="M8.00002 25.3333C8.00002 26.8 9.20002 28 10.6667 28H21.3334C22.8 28 24 26.8 24 25.3333V12C24 10.5333 22.8 9.33333 21.3334 9.33333H10.6667C9.20002 9.33333 8.00002 10.5333 8.00002 12V25.3333ZM12 12H20C20.7334 12 21.3334 12.6 21.3334 13.3333V24C21.3334 24.7333 20.7334 25.3333 20 25.3333H12C11.2667 25.3333 10.6667 24.7333 10.6667 24V13.3333C10.6667 12.6 11.2667 12 12 12ZM20.6667 5.33333L19.72 4.38667C19.48 4.14667 19.1334 4 18.7867 4H13.2134C12.8667 4 12.52 4.14667 12.28 4.38667L11.3334 5.33333H8.00002C7.26669 5.33333 6.66669 5.93333 6.66669 6.66667C6.66669 7.4 7.26669 8 8.00002 8H24C24.7334 8 25.3334 7.4 25.3334 6.66667C25.3334 5.93333 24.7334 5.33333 24 5.33333H20.6667Z" fill="#CC1778"/>
</svg>
