<svg width="408" height="73" viewBox="0 0 408 73" fill="none" xmlns="http://www.w3.org/2000/svg">
<path d="M150 16.08V20.6H138.36V27.76H147.28V32.2H138.36V44H132.76V16.08H150ZM152.531 32.84C152.531 30.6 152.971 28.6133 153.851 26.88C154.758 25.1467 155.971 23.8133 157.491 22.88C159.038 21.9467 160.758 21.48 162.651 21.48C164.304 21.48 165.744 21.8133 166.971 22.48C168.224 23.1467 169.224 23.9867 169.971 25V21.84H175.611V44H169.971V40.76C169.251 41.8 168.251 42.6667 166.971 43.36C165.718 44.0267 164.264 44.36 162.611 44.36C160.744 44.36 159.038 43.88 157.491 42.92C155.971 41.96 154.758 40.6133 153.851 38.88C152.971 37.12 152.531 35.1067 152.531 32.84ZM169.971 32.92C169.971 31.56 169.704 30.4 169.171 29.44C168.638 28.4533 167.918 27.7067 167.011 27.2C166.104 26.6667 165.131 26.4 164.091 26.4C163.051 26.4 162.091 26.6533 161.211 27.16C160.331 27.6667 159.611 28.4133 159.051 29.4C158.518 30.36 158.251 31.5067 158.251 32.84C158.251 34.1733 158.518 35.3467 159.051 36.36C159.611 37.3467 160.331 38.1067 161.211 38.64C162.118 39.1733 163.078 39.44 164.091 39.44C165.131 39.44 166.104 39.1867 167.011 38.68C167.918 38.1467 168.638 37.4 169.171 36.44C169.704 35.4533 169.971 34.28 169.971 32.92ZM208.6 21.52C211.32 21.52 213.507 22.36 215.16 24.04C216.84 25.6933 217.68 28.0133 217.68 31V44H212.08V31.76C212.08 30.0267 211.64 28.7067 210.76 27.8C209.88 26.8667 208.68 26.4 207.16 26.4C205.64 26.4 204.427 26.8667 203.52 27.8C202.64 28.7067 202.2 30.0267 202.2 31.76V44H196.6V31.76C196.6 30.0267 196.16 28.7067 195.28 27.8C194.4 26.8667 193.2 26.4 191.68 26.4C190.134 26.4 188.907 26.8667 188 27.8C187.12 28.7067 186.68 30.0267 186.68 31.76V44H181.08V21.84H186.68V24.52C187.4 23.5867 188.32 22.8533 189.44 22.32C190.587 21.7867 191.84 21.52 193.2 21.52C194.934 21.52 196.48 21.8933 197.84 22.64C199.2 23.36 200.254 24.4 201 25.76C201.72 24.48 202.76 23.4533 204.12 22.68C205.507 21.9067 207 21.52 208.6 21.52ZM225.834 19.2C224.848 19.2 224.021 18.8933 223.354 18.28C222.714 17.64 222.394 16.8533 222.394 15.92C222.394 14.9867 222.714 14.2133 223.354 13.6C224.021 12.96 224.848 12.64 225.834 12.64C226.821 12.64 227.634 12.96 228.274 13.6C228.941 14.2133 229.274 14.9867 229.274 15.92C229.274 16.8533 228.941 17.64 228.274 18.28C227.634 18.8933 226.821 19.2 225.834 19.2ZM228.594 21.84V44H222.994V21.84H228.594ZM239.727 14.4V44H234.127V14.4H239.727ZM266.46 21.84L252.74 54.48H246.78L251.58 43.44L242.7 21.84H248.98L254.7 37.32L260.5 21.84H266.46ZM298.01 16.08V20.6H290.57V44H284.97V20.6H277.53V16.08H298.01ZM300.656 32.84C300.656 30.6 301.096 28.6133 301.976 26.88C302.883 25.1467 304.096 23.8133 305.616 22.88C307.163 21.9467 308.883 21.48 310.776 21.48C312.429 21.48 313.869 21.8133 315.096 22.48C316.349 23.1467 317.349 23.9867 318.096 25V21.84H323.736V44H318.096V40.76C317.376 41.8 316.376 42.6667 315.096 43.36C313.843 44.0267 312.389 44.36 310.736 44.36C308.869 44.36 307.163 43.88 305.616 42.92C304.096 41.96 302.883 40.6133 301.976 38.88C301.096 37.12 300.656 35.1067 300.656 32.84ZM318.096 32.92C318.096 31.56 317.829 30.4 317.296 29.44C316.763 28.4533 316.043 27.7067 315.136 27.2C314.229 26.6667 313.256 26.4 312.216 26.4C311.176 26.4 310.216 26.6533 309.336 27.16C308.456 27.6667 307.736 28.4133 307.176 29.4C306.643 30.36 306.376 31.5067 306.376 32.84C306.376 34.1733 306.643 35.3467 307.176 36.36C307.736 37.3467 308.456 38.1067 309.336 38.64C310.243 39.1733 311.203 39.44 312.216 39.44C313.256 39.44 314.229 39.1867 315.136 38.68C316.043 38.1467 316.763 37.4 317.296 36.44C317.829 35.4533 318.096 34.28 318.096 32.92ZM337.685 44.36C335.872 44.36 334.245 44.04 332.805 43.4C331.365 42.7333 330.219 41.84 329.365 40.72C328.539 39.6 328.085 38.36 328.005 37H333.645C333.752 37.8533 334.165 38.56 334.885 39.12C335.632 39.68 336.552 39.96 337.645 39.96C338.712 39.96 339.539 39.7467 340.125 39.32C340.739 38.8933 341.045 38.3467 341.045 37.68C341.045 36.96 340.672 36.4267 339.925 36.08C339.205 35.7067 338.045 35.3067 336.445 34.88C334.792 34.48 333.432 34.0667 332.365 33.64C331.325 33.2133 330.419 32.56 329.645 31.68C328.899 30.8 328.525 29.6133 328.525 28.12C328.525 26.8933 328.872 25.7733 329.565 24.76C330.285 23.7467 331.299 22.9467 332.605 22.36C333.939 21.7733 335.499 21.48 337.285 21.48C339.925 21.48 342.032 22.1467 343.605 23.48C345.179 24.7867 346.045 26.56 346.205 28.8H340.845C340.765 27.92 340.392 27.2267 339.725 26.72C339.085 26.1867 338.219 25.92 337.125 25.92C336.112 25.92 335.325 26.1067 334.765 26.48C334.232 26.8533 333.965 27.3733 333.965 28.04C333.965 28.7867 334.339 29.36 335.085 29.76C335.832 30.1333 336.992 30.52 338.565 30.92C340.165 31.32 341.485 31.7333 342.525 32.16C343.565 32.5867 344.459 33.2533 345.205 34.16C345.979 35.04 346.379 36.2133 346.405 37.68C346.405 38.96 346.045 40.1067 345.325 41.12C344.632 42.1333 343.619 42.9333 342.285 43.52C340.979 44.08 339.445 44.36 337.685 44.36ZM364.122 44L356.602 34.56V44H351.002V14.4H356.602V31.24L364.042 21.84H371.322L361.562 32.96L371.402 44H364.122Z" fill="#5F6060"/>
<path fill-rule="evenodd" clip-rule="evenodd" d="M42.3427 44.9418C37.2812 37.0573 29.0845 33.4323 21.1927 33.3683C12.1827 33.299 3.66497 37.9209 0.294249 45.8907C-0.502954 47.7726 0.385205 49.9476 2.27388 50.7419C4.16256 51.5362 6.3455 50.6513 7.1427 48.7695C9.3738 43.4971 15.1736 40.7304 21.1339 40.7783C26.709 40.821 32.5034 43.3692 36.0774 48.9347C37.1849 50.6566 39.4856 51.1631 41.2138 50.0595C42.9419 48.956 43.4449 46.6637 42.3427 44.9418Z" fill="#74BEC0"/>
<path fill-rule="evenodd" clip-rule="evenodd" d="M77.9012 44.558C72.8397 36.6735 64.643 33.0431 56.7512 32.9844C47.7412 32.9151 39.2234 37.5371 35.8527 45.5069C35.0555 47.394 35.9437 49.5637 37.8324 50.358C39.721 51.1524 41.904 50.2674 42.7012 48.3856C44.9323 43.1133 50.7321 40.3465 56.6924 40.3945C62.2674 40.4371 68.0619 42.9853 71.6359 48.5509C72.7434 50.2728 75.0441 50.7792 76.7722 49.6757C78.5004 48.5722 79.0033 46.2799 77.9012 44.558Z" fill="#E9A527"/>
<path fill-rule="evenodd" clip-rule="evenodd" d="M113.417 44.1582C108.355 36.2737 100.164 32.6433 92.2668 32.5846C83.2568 32.5153 74.7391 37.1373 71.3683 45.1071C70.5711 46.9889 71.4593 49.1639 73.348 49.9582C75.242 50.7526 77.4196 49.8676 78.2168 47.9858C80.4479 42.7135 86.2477 39.9467 92.208 39.9947C97.7831 40.0373 103.577 42.5855 107.152 48.151C108.259 49.8729 110.56 50.3794 112.288 49.2759C114.016 48.1724 114.524 45.8801 113.417 44.1582Z" fill="#CC1778"/>
<path fill-rule="evenodd" clip-rule="evenodd" d="M23.5897 12.199C26.5056 12.3376 28.7635 14.8059 28.6297 17.7113C28.4906 20.6166 26.0134 22.8663 23.0975 22.733C20.1815 22.5944 17.9237 20.1262 18.0574 17.2208C18.1912 14.3154 20.6684 12.0658 23.5897 12.199ZM23.9321 4.79966C16.9125 4.47447 10.9522 9.8854 10.6258 16.8796C10.2994 23.8738 15.73 29.8125 22.7497 30.1377C29.7694 30.4629 35.7297 25.052 36.056 18.0578C36.3824 11.0635 30.9518 5.12485 23.9321 4.79966Z" fill="#74BEC0"/>
<path fill-rule="evenodd" clip-rule="evenodd" d="M59.1482 11.8152C62.0641 11.9485 64.322 14.422 64.1882 17.3274C64.0491 20.2328 61.5719 22.4878 58.6559 22.3492C55.74 22.2159 53.4821 19.7423 53.6159 16.837C53.7497 13.9316 56.2269 11.6819 59.1482 11.8152ZM59.4906 4.41581C52.4709 4.09062 46.5106 9.50155 46.1843 16.4904C45.8579 23.4847 51.2885 29.4234 58.3082 29.7485C65.3278 30.0737 71.2881 24.6628 71.6145 17.6686C71.9409 10.6797 66.5103 4.741 59.4906 4.41581Z" fill="#E9A527"/>
<path fill-rule="evenodd" clip-rule="evenodd" d="M94.6638 11.4154C97.5797 11.5486 99.8429 14.0222 99.7038 16.9276C99.5701 19.833 97.0875 22.0826 94.1716 21.9494C91.2556 21.8161 88.9978 19.3425 89.1315 16.4371C89.2653 13.5318 91.7479 11.2768 94.6638 11.4154ZM95.0116 4.016C87.9919 3.69081 82.0316 9.10174 81.7053 16.096C81.3789 23.0902 86.8095 29.0289 93.8238 29.3541C100.843 29.6793 106.804 24.2683 107.13 17.2794C107.456 10.2905 102.026 4.34119 95.0116 4.016Z" fill="#CC1778"/>
</svg>
